<svg xmlns="http://www.w3.org/2000/svg" viewBox="0 0 1340.49 619"><defs><style>.a{fill:#fff}.b{fill:#fff73c}.c,.d,.e,.g{fill:none;stroke-linejoin:round;stroke-width:12px}.c{stroke:#fff73c}.d,.e{stroke:#1f0d20}.e,.g{stroke-linecap:round}.g{stroke:#1f8afa}</style></defs><path class="a" d="M1315.65 184.17h4.88v4.25h-4.88zM1315.65 84.99h4.88v4.25h-4.88zM1276.08 134.68h4.88v4.25h-4.88zM1220.65 503.5l-5.82 33.02-11.6-2.04 3.7-20.98-21.42-3.781 2.12-12.04z"/><path class="b" d="M1181.811 530.705l3.7-20.98 21.42 3.778-3.7 20.98z"/><path class="b" d="M1203.23 534.48l-2.12 12.04-33.02-5.83 5.83-33.01 11.59 2.04-3.7 20.98z"/><path class="a" d="M160.26 82.219l5.83 33.01-11.61 2.05-3.82-21.64-21.41 3.77-2-11.37z"/><path class="b" d="M154.48 117.28l2 11.37-33.02 5.83-5.82-33.02 11.61-2.05 3.82 21.65z"/><path class="b" d="M154.48 117.28l-21.41 3.78-3.82-21.65 21.41-3.77z"/><path class="a" d="M103.82 575.48h3.81v3.37h-3.81zM16.77 575.48h3.8v3.37h-3.8z"/><path class="c" d="M154.48 117.28l2 11.37-33.02 5.83-5.82-33.02 11.61-2.05 21.41-3.77z"/><path class="d" d="M129.25 99.41l-2-11.37 33.01-5.82 5.83 33.01-11.61 2.05-21.41 3.78z"/><path class="e" d="M100.26 114.56A68.34 68.34 0 0 1 33.9 6"/><path d="M1263.71 138.93h24.95" stroke="#eb7170" stroke-linecap="round" fill="none" stroke-linejoin="round" stroke-width="12"/><path class="e" d="M1268.6 134.68h24.94M1281.07 97.46V72.51M1320.53 196.44v-24.95M1308.17 184.17h24.95M1322.01 146.95V122M1320.53 97.26V72.31M1309.54 84.99h24.95"/><path class="g" d="M6 578.85h21.9M16.77 567.99v21.9M49.44 578.94h21.9M93.06 578.85h21.9M103.82 567.99v21.9M136.49 578.94h21.9"/><path class="e" d="M9.81 575.48h21.9M20.57 564.619v21.9M53.24 575.57h21.9M96.86 575.48h21.9M107.63 564.619v21.9M140.3 575.57h21.9"/><path class="c" d="M1203.23 534.48l-2.12 12.04-33.02-5.83 5.83-33.01 11.59 2.04 21.42 3.78z"/><path class="d" d="M1185.51 509.719l2.12-12.04 33.02 5.82-5.82 33.02-11.6-2.04-21.42-3.78z"/><path class="e" d="M1202.11 613a66.267 66.267 0 0 1-13.3-52.64"/></svg>