<svg xmlns="http://www.w3.org/2000/svg" viewBox="0 0 204.021 203.89"><defs><style>.a,.b,.c,.d{fill:#3880f4;}.a{opacity:0.25;}.b{opacity:0.5;}.c{opacity:0.75;}.e,.f,.g{fill:#fff;}.f{font-size:13px;}.f,.g{font-family:Helvetica;}.g{font-size:15px;}</style></defs><g transform="translate(-2.78 -995.018)"><g transform="translate(2.78 995.018)"><g transform="translate(0 0)"><path class="a" d="M79.618,538.3,19.731,455.878a97.621,97.621,0,0,1,59.887-19.457Z" transform="translate(22.566 -436.411)"/><path class="b" d="M103.4,527.358,6.5,558.844a100.291,100.291,0,0,1,37.01-113.911Z" transform="translate(-1.217 -425.465)"/><path class="c" d="M100.43,481.012l15.939,100.632A101.082,101.082,0,0,1,3.529,512.5Z" transform="translate(1.754 -379.119)"/><path class="d" d="M45.945,538.3V436.412A101.89,101.89,0,0,1,61.884,638.929Z" transform="translate(56.238 -436.409)"/></g><path class="e" d="M47.754,0A47.754,47.754,0,1,1,0,47.754,47.754,47.754,0,0,1,47.754,0Z" transform="translate(55.373 54.576)"/></g><text class="f" transform="translate(163.299 1105.18)"><tspan x="0" y="0">47%</tspan></text><text class="g" transform="translate(51.05 1167.177)"><tspan x="0" y="0">23%</tspan></text><text class="g" transform="translate(18.02 1080.979)"><tspan x="0" y="0">20%</tspan></text><text class="g" transform="translate(65.251 1031.29)"><tspan x="0" y="0">10%</tspan></text></g></svg>