<svg xmlns="http://www.w3.org/2000/svg" xmlns:xlink="http://www.w3.org/1999/xlink" viewBox="0 0 1440 607"><defs><style>.a{fill:#140b20;stroke:#707070;}.b,.e,.f,.h,.i,.j,.k,.l,.m,.n,.o,.p,.q,.s,.u,.v{fill:none;}.c{clip-path:url(#a);}.d{fill:#160820;}.e,.f,.g,.h,.i,.j,.k,.l,.m,.n,.o,.p,.q,.s,.u,.v,.w{stroke:#ff6166;}.e,.g,.h,.i,.j,.k,.l,.m,.n,.o,.p,.q,.s,.u{stroke-linecap:round;}.e,.f,.g,.h,.i,.j,.k,.l,.m,.n,.o,.p,.q,.s,.u{stroke-linejoin:round;}.e,.f,.g,.h,.i,.j,.k,.l,.m,.n,.o,.p,.q{stroke-width:2.014px;}.e{stroke-dasharray:15.626 7.813;}.g{fill:#230920;}.i{stroke-dasharray:10.643 8.708;}.j{stroke-dasharray:5.791 4.738;}.k{stroke-dasharray:13.146 10.756;}.l{stroke-dasharray:6.025 4.929;}.m{stroke-dasharray:10.114 8.275;}.n{stroke-dasharray:10.466 8.563;}.o{stroke-dasharray:10.09 8.256;}.p{stroke-dasharray:6.015 4.922;}.q{stroke-dasharray:13.032 10.663;}.r{clip-path:url(#b);}.s{stroke-width:2.685px;}.t{fill:#fff;}.u{stroke-width:2.178px;}.v{stroke-miterlimit:10;stroke-width:2.175px;}.w{fill:#ff6166;stroke-width:0.068px;font-size:3px;font-family:Helvetica;}</style><clipPath id="a"><rect class="a" width="1440" height="607" transform="translate(205 60)"/></clipPath><clipPath id="b"><path class="b" d="M553.318,404.332h21.005l-14.367,81.409h-21Z" transform="translate(-538.952 -404.332)"/></clipPath></defs><g class="c" transform="translate(-205 -60)"><g transform="translate(925 335.262)"><g transform="translate(-720 -342.091)"><rect class="d" width="1440" height="684.181"/><g transform="translate(322.151 161.457)"><line class="e" y1="181.17" x2="31.619" transform="translate(535.359 75.85)"/><ellipse class="f" cx="4.957" cy="4.957" rx="4.957" ry="4.957" transform="translate(528.713 261.736)"/><g transform="translate(563.12 67.464)"><line class="g" x1="6.369" y1="9.062" transform="translate(1.347)"/><line class="g" x1="9.062" y2="6.369" transform="translate(0 1.347)"/></g><g transform="translate(186.476 122.691)"><path class="h" d="M742.572,428.87l-.649,3.635h3.693" transform="translate(-711.994 -401.705)"/><line class="i" x2="10.886" transform="translate(39.943 30.8)"/><path class="h" d="M775.07,433.877h3.692l-.652,3.634" transform="translate(-721.08 -403.077)"/><line class="j" x1="1.047" y2="5.83" transform="translate(55.374 37.819)"/><path class="h" d="M774.916,453.91l-.652,3.634h-3.693" transform="translate(-719.846 -408.568)"/><line class="i" x1="10.887" transform="translate(33.517 48.975)"/><path class="h" d="M740.879,458.916h-3.692l-.63,3.638" transform="translate(-710.523 -409.941)"/><path class="h" d="M734.756,472.947l-.63,3.637h3.692" transform="translate(-709.857 -413.787)"/><line class="k" x2="13.446" transform="translate(35.769 62.798)"/><path class="h" d="M773.87,477.958h3.692l-.658,3.633" transform="translate(-720.751 -415.16)"/><line class="l" x1="1.1" y2="6.063" transform="translate(54.415 69.951)"/><path class="h" d="M773.573,498.592l-.659,3.632h-3.692" transform="translate(-719.477 -420.816)"/><line class="m" x1="37.044" transform="translate(6.695 81.408)"/><path class="h" d="M704.384,502.223h-3.692l.641-3.636" transform="translate(-700.692 -420.815)"/><line class="n" y1="64.955" x2="11.463" transform="translate(1.722 6.696)"/><path class="h" d="M719.6,395.082l.642-3.635h3.692" transform="translate(-705.875 -391.447)"/><line class="o" x2="36.956" transform="translate(24.051)"/><path class="h" d="M788.864,391.447h3.692l-.638,3.636" transform="translate(-724.861 -391.447)"/><line class="p" x1="1.063" y2="6.06" transform="translate(65.377 7.155)"/><path class="h" d="M788.7,412.076l-.638,3.637h-3.693" transform="translate(-723.628 -397.101)"/><line class="q" x1="13.33" transform="translate(39.668 18.611)"/><path class="h" d="M748.369,417.086h-3.692l-.649,3.635" transform="translate(-712.571 -398.475)"/></g><g class="r" transform="translate(69.07 132.044)"><line class="s" y1="83.11" x2="83.109" transform="translate(-75.287 -57.554)"/><line class="s" y1="83.11" x2="83.109" transform="translate(-69.605 -51.809)"/><line class="s" y1="83.11" x2="83.109" transform="translate(-63.855 -46.132)"/><line class="s" y1="83.109" x2="83.11" transform="translate(-58.214 -40.344)"/><line class="s" y1="83.109" x2="83.11" transform="translate(-52.464 -34.667)"/><line class="s" y1="83.11" x2="83.11" transform="translate(-46.782 -28.922)"/><line class="h" y1="83.11" x2="83.109" transform="translate(-40.843 -23.183)"/><line class="h" y1="83.11" x2="83.11" transform="translate(-35.125 -17.474)"/><line class="h" y1="83.11" x2="83.11" transform="translate(-29.452 -11.719)"/><line class="h" y1="83.11" x2="83.11" transform="translate(-23.77 -5.973)"/><line class="h" y1="83.11" x2="83.11" transform="translate(-18.02 -0.296)"/><line class="s" y1="83.11" x2="83.11" transform="translate(-72.415 -54.713)"/><line class="s" y1="83.11" x2="83.11" transform="translate(-66.702 -48.999)"/><line class="s" y1="83.11" x2="83.11" transform="translate(-61.082 -43.191)"/><line class="s" y1="83.11" x2="83.11" transform="translate(-55.368 -37.477)"/><line class="s" y1="83.11" x2="83.109" transform="translate(-49.607 -31.811)"/><line class="h" y1="83.109" x2="83.11" transform="translate(-38.086 -20.226)"/><line class="h" y1="83.11" x2="83.109" transform="translate(-32.272 -14.612)"/><line class="h" y1="83.11" x2="83.11" transform="translate(-26.58 -8.878)"/><line class="h" y1="83.11" x2="83.109" transform="translate(-20.944 -3.085)"/><line class="h" y1="83.11" x2="83.11" transform="translate(-15.173 2.571)"/><line class="h" y1="83.11" x2="83.11" transform="translate(-12.371 5.483)"/><line class="h" y1="83.11" x2="83.11" transform="translate(-6.689 11.228)"/><line class="h" y1="83.11" x2="83.11" transform="translate(-0.939 16.905)"/><line class="s" y1="83.11" x2="83.11" transform="translate(4.702 22.692)"/><line class="s" y1="83.11" x2="83.109" transform="translate(10.453 28.369)"/><line class="s" y1="83.11" x2="83.11" transform="translate(16.135 34.115)"/><line class="s" y1="83.11" x2="83.11" transform="translate(22.073 39.854)"/><line class="s" y1="83.109" x2="83.11" transform="translate(27.792 45.563)"/><line class="s" y1="83.109" x2="83.109" transform="translate(33.464 51.318)"/><line class="s" y1="83.11" x2="83.11" transform="translate(39.147 57.063)"/><line class="s" y1="83.11" x2="83.109" transform="translate(44.897 62.74)"/><line class="h" y1="83.11" x2="83.109" transform="translate(-9.498 8.324)"/><line class="h" y1="83.11" x2="83.11" transform="translate(-3.785 14.038)"/><line class="s" y1="83.11" x2="83.109" transform="translate(1.835 19.846)"/><line class="s" y1="83.11" x2="83.11" transform="translate(7.549 25.559)"/><line class="s" y1="83.11" x2="83.11" transform="translate(13.309 31.226)"/><line class="s" y1="83.11" x2="83.11" transform="translate(19.185 37.028)"/><line class="s" y1="83.11" x2="83.11" transform="translate(24.831 42.81)"/><line class="s" y1="83.11" x2="83.11" transform="translate(30.644 48.424)"/><line class="s" y1="83.109" x2="83.11" transform="translate(36.337 54.16)"/><line class="s" y1="83.11" x2="83.11" transform="translate(41.972 59.951)"/><line class="s" y1="83.11" x2="83.11" transform="translate(47.743 65.608)"/></g><path class="t" d="M503.768,401.123a22.512,22.512,0,0,1,8.38,5.714,21.734,21.734,0,0,1,4.844,9.033,28.493,28.493,0,0,1,.489,11.863,34.524,34.524,0,0,1-3.319,10.992,25.382,25.382,0,0,1-6.367,8.054,27.347,27.347,0,0,1-9.033,4.953,35.994,35.994,0,0,1-11.319,1.687h-17.85l-4.791,27.1h-21l14.367-81.409h34.391a29.809,29.809,0,0,1,11.21,2.014Zm-17.3,33.793A10.3,10.3,0,0,0,493,432.794a9.726,9.726,0,0,0,3.374-6.585,7.985,7.985,0,0,0-1.2-6.039q-1.742-2.448-5.662-2.448H475.906l-3.049,17.2Z" transform="translate(-443.8 -270.855)"/><path class="t" d="M559.813,399.111h21.005L566.452,480.52H545.447Z" transform="translate(-471.662 -270.857)"/><path class="t" d="M641.146,480.52,630.479,454.4,611.216,480.52H586.075l32-42.989-15.781-38.419h23.29l9.251,25.035,17.849-25.032h25.249l-30.691,41.03,17.3,40.378Z" transform="translate(-482.799 -270.857)"/><path class="t" d="M736.393,429.911h27.753l-3.267,18.176H733.13l-2.4,13.822h32.542L759.9,480.52H706.463l14.367-81.409h53.329l-3.267,18.611H738.568Z" transform="translate(-515.798 -270.857)"/><path class="t" d="M850.944,480.52H797.615l14.367-81.409h21l-11.1,62.8h32.324Z" transform="translate(-540.784 -270.857)"/><path class="t" d="M972.881,448.3H945.564L939.9,480.52h-21l14.367-81.409h21l-5.444,30.583h27.317l5.333-30.583h21.005L988.116,480.52h-21Z" transform="translate(-574.029 -270.857)"/><path class="t" d="M1099.864,472.628q-10.5,9.087-27.154,9.087a40.884,40.884,0,0,1-15.074-2.557,24.931,24.931,0,0,1-16-18.774,38.582,38.582,0,0,1,.054-15.128l8.054-46.146h21.005l-8.38,46.8q-1.524,8.816,1.524,13.005t10.23,4.191q8.163,0,12.679-4.791t5.931-12.951l8.053-46.255h21.005l-8.271,47.452Q1110.367,463.541,1099.864,472.628Z" transform="translate(-607.474 -270.856)"/><path class="t" d="M1205.779,399.311a26.938,26.938,0,0,1,9.632,5.226,18.624,18.624,0,0,1,5.5,8.217,23.686,23.686,0,0,1,.871,10.72l-21.44.871q.543-4.138-1.36-6.421t-6.042-2.289a12.259,12.259,0,0,0-7.4,2.067,8.184,8.184,0,0,0-3.374,5.551,5.532,5.532,0,0,0,.163,2.613,4.385,4.385,0,0,0,1.633,2.013,13.938,13.938,0,0,0,3.537,1.742q2.285.816,5.88,1.8a79.887,79.887,0,0,1,11.1,3.592,30.192,30.192,0,0,1,8.38,5.009,17.151,17.151,0,0,1,4.9,7.021,20.078,20.078,0,0,1,.761,9.74,27.9,27.9,0,0,1-3.972,11.156,26.485,26.485,0,0,1-7.4,7.618,30.5,30.5,0,0,1-9.9,4.355,47.59,47.59,0,0,1-11.482,1.36,49.516,49.516,0,0,1-13.877-1.8,27.875,27.875,0,0,1-10.285-5.279,19.94,19.94,0,0,1-5.985-8.544,23.341,23.341,0,0,1-.871-11.59l21.44-.762q-.653,4.681,1.9,7.237t7.564,2.558a16.332,16.332,0,0,0,7.944-1.688,6.667,6.667,0,0,0,3.485-5.387,5.085,5.085,0,0,0-2.286-5.009q-2.721-2.071-8.924-3.592-5.551-1.414-10.5-3.156a28.685,28.685,0,0,1-8.489-4.573,16.954,16.954,0,0,1-5.227-7.02,20.256,20.256,0,0,1-.816-10.394,30.564,30.564,0,0,1,3.1-9.522,26.192,26.192,0,0,1,6.366-7.946,29.913,29.913,0,0,1,9.631-5.387,38.648,38.648,0,0,1,12.788-1.96A42.676,42.676,0,0,1,1205.779,399.311Z" transform="translate(-638.571 -270.403)"/><path class="t" d="M1302.374,480.519l-12.735-32.325-13.169,13.06-3.592,19.264h-21.005l14.367-81.409h21l-5.55,30.474,28.623-30.474h27.317L1305.527,432.2l19.264,48.322Z" transform="translate(-665.299 -270.856)"/><path class="t" d="M1391.887,480.52l5.55-29.82-21.875-51.588h23.508l11.21,30.8,22.855-30.8h25.141L1418.444,450.7l-5.55,29.82Z" transform="translate(-699.203 -270.857)"/><path class="h" d="M1090.88,481.66q-10.5,9.087-27.154,9.087a40.883,40.883,0,0,1-15.074-2.557,24.931,24.931,0,0,1-16-18.774,38.58,38.58,0,0,1,.055-15.128l8.054-46.146h21.005l-8.38,46.8q-1.525,8.816,1.524,13.005t10.23,4.191q8.163,0,12.679-4.791t5.931-12.951l8.053-46.255h21.005l-8.271,47.452Q1101.383,472.57,1090.88,481.66Z" transform="translate(-605.011 -273.331)"/><path class="h" d="M1138.151,275.9a65.139,65.139,0,1,1,128.168,23.356" transform="translate(-634.127 -222.426)"/></g><path class="u" d="M1543.817,499.437c3.592,0,3.592,7.317,7.186,7.317s3.593-7.317,7.186-7.317,3.592,7.317,7.186,7.317,3.593-7.317,7.187-7.317,3.592,7.317,7.186,7.317,3.593-7.317,7.186-7.317,3.592,7.317,7.186,7.317,3.592-7.317,7.187-7.317,3.593,7.317,7.186,7.317,3.594-7.317,7.186-7.317,3.593,7.317,7.186,7.317,3.595-7.317,7.191-7.317,3.6,7.317,7.191,7.317" transform="translate(-423.172 -136.899)"/><path class="u" d="M334.262,629.892l-6.437,4.836V612.312L342.4,629.841Z" transform="translate(-89.859 -167.839)"/><rect class="u" width="7.287" height="7.287" transform="translate(248.896 468.98)"/><line class="v" x1="181.357" transform="translate(139.789 137.981)"/><line class="u" y1="9.104" transform="translate(320.068 137.987)"/><line class="u" y1="9.105" transform="translate(230.465 137.983)"/><line class="u" y1="9.105" transform="translate(275.571 137.983)"/><line class="u" y1="9.105" transform="translate(298.124 137.983)"/><line class="u" y1="9.105" transform="translate(253.019 137.983)"/><line class="u" y1="9.104" transform="translate(140.88 137.981)"/><line class="u" y1="9.104" transform="translate(207.912 137.981)"/><line class="u" y1="9.105" transform="translate(185.36 137.983)"/><line class="u" y1="9.105" transform="translate(162.798 137.983)"/><text class="w" transform="translate(136.766 152.558)"><tspan x="0" y="0">0&quot;</tspan></text><text class="w" transform="translate(227.071 152.558)"><tspan x="0" y="0">1&quot;</tspan></text><text class="w" transform="translate(317.37 152.562)"><tspan x="0" y="0">2&quot;</tspan></text></g></g></g></svg>