<svg xmlns="http://www.w3.org/2000/svg" viewBox="0 0 203.907 203.8"><defs><style>.a,.b{fill:#f56151;}.a{opacity:0.33;}.b{opacity:0.66;}.c{fill:#ff6166;}.d,.e,.f{fill:#fff;}.e{font-size:13px;}.e,.f{font-family:Helvetica;}.f{font-size:15px;}</style></defs><g transform="translate(-475.676 -995.01)"><g transform="translate(475.676 995.01)"><path class="a" d="M307.94,538.291,210,510.207a100.675,100.675,0,0,1,97.938-73.791Z" transform="translate(-205.924 -436.4)"/><path class="b" d="M310.232,496.8l41.442,93.077a101.89,101.89,0,0,1-134.518-51.63,99.834,99.834,0,0,1-4.864-69.53Z" transform="translate(-208.216 -394.907)"/><path class="c" d="M252.871,538.3V436.407A101.89,101.89,0,0,1,354.761,538.3c0,41.807-22.251,76.075-60.444,93.076Z" transform="translate(-150.854 -436.407)"/><path class="d" d="M47.754,0A47.754,47.754,0,1,1,0,47.754,47.754,47.754,0,0,1,47.754,0Z" transform="translate(54.263 54.137)"/></g><text class="e" transform="translate(636.465 1093.59)"><tspan x="0" y="0">45%</tspan></text><text class="f" transform="translate(513.073 1157.358)"><tspan x="0" y="0">35%</tspan></text><text class="f" transform="translate(517.489 1045.688)"><tspan x="0" y="0">20%</tspan></text></g></svg>