<svg xmlns="http://www.w3.org/2000/svg" viewBox="0 0 1440.503 618.047"><defs><style>.a{fill:#ef8990;}.b,.c,.d,.e,.f,.h,.i,.j,.k,.l{fill:none;stroke:#fff;stroke-miterlimit:10;}.b{stroke-width:3px;}.c{stroke-width:3px;}.d{stroke-width:4px;}.e{stroke-width:3.427px;}.f{stroke-width:3.427px;}.g{fill:#fff;}.h{stroke-width:3.75px;}.i{stroke-width:5px;}.j{stroke-width:2px;}.k{stroke-width:4.611px;}.l{stroke-width:4px;}.m{fill:rgba(255,255,255,0.99);font-size:95px;font-family:Helvetica;}</style></defs><g transform="translate(0.126 -83.723)"><g transform="translate(720.125 392.723)"><g transform="translate(-720.252 -309)"><path class="a" d="M0,618V0H1440V618"/><g transform="translate(1277.782 143.746)"><line class="b" x2="14.871" transform="translate(29.496 7.372)"/><line class="c" y2="14.871" transform="translate(36.809)"/><line class="b" x2="14.871" transform="translate(58.992 7.435)"/><line class="b" x2="14.872" transform="translate(88.611 7.372)"/><line class="c" y2="14.871" transform="translate(95.924)"/><line class="b" x2="14.871" transform="translate(118.107 7.435)"/><line class="b" x2="14.871" transform="translate(147.85 7.432)"/><line class="c" y2="14.872" transform="translate(155.162 0.06)"/><line class="b" x2="14.872" transform="translate(0 31.579)"/><line class="c" y2="14.872" transform="translate(7.313 24.207)"/><line class="b" x2="14.871" transform="translate(29.496 31.643)"/><line class="b" x2="14.872" transform="translate(59.115 31.579)"/><line class="c" y2="14.872" transform="translate(66.428 24.207)"/><line class="b" x2="14.872" transform="translate(88.611 31.643)"/><line class="b" x2="14.871" transform="translate(118.354 31.64)"/><line class="c" y2="14.871" transform="translate(125.666 24.268)"/><line class="b" x2="14.871" transform="translate(147.85 31.704)"/><line class="b" x2="14.871" transform="translate(29.496 55.832)"/><line class="c" y2="14.871" transform="translate(36.809 48.46)"/><line class="b" x2="14.871" transform="translate(58.992 55.895)"/><line class="b" x2="14.872" transform="translate(88.611 55.832)"/><line class="c" y2="14.871" transform="translate(95.924 48.46)"/><line class="b" x2="14.871" transform="translate(118.107 55.895)"/><line class="b" x2="14.871" transform="translate(147.85 55.892)"/><line class="c" y2="14.871" transform="translate(155.162 48.52)"/><line class="b" x2="14.872" transform="translate(0 79.417)"/><line class="c" y2="14.871" transform="translate(7.313 72.045)"/><line class="b" x2="14.871" transform="translate(29.496 79.48)"/><line class="b" x2="14.872" transform="translate(59.115 79.417)"/><line class="c" y2="14.871" transform="translate(66.428 72.045)"/><line class="b" x2="14.872" transform="translate(88.611 79.48)"/><line class="b" x2="14.871" transform="translate(118.354 79.477)"/><line class="c" y2="14.872" transform="translate(125.666 72.105)"/><line class="b" x2="14.871" transform="translate(147.85 79.541)"/></g><path class="d" d="M2.927,428.273a51.72,51.72,0,1,1,0,103.44" transform="translate(0 0)"/><rect class="d" width="63.213" height="63.213" transform="translate(92 462.181) rotate(180)"/><ellipse class="e" cx="8.243" cy="7.703" rx="8.243" ry="7.703" transform="translate(927.622 81.646) rotate(-80.621)"/><ellipse class="f" cx="8.243" cy="7.703" rx="8.243" ry="7.703" transform="translate(892.683 67.064)"/><ellipse class="f" cx="8.243" cy="7.703" rx="8.243" ry="7.703" transform="translate(857.043 67.064)"/><g transform="translate(292.907 545.03)"><ellipse class="g" cx="3.525" cy="3.525" rx="3.525" ry="3.525" transform="translate(0 60.084)"/><ellipse class="g" cx="3.525" cy="3.525" rx="3.525" ry="3.525" transform="translate(3.54 39.799)"/><ellipse class="g" cx="3.525" cy="3.525" rx="3.525" ry="3.525" transform="translate(7.013 19.899)"/><ellipse class="g" cx="3.525" cy="3.525" rx="3.525" ry="3.525" transform="translate(10.486)"/><ellipse class="g" cx="3.525" cy="3.525" rx="3.525" ry="3.525" transform="translate(20.212 60.084)"/><ellipse class="g" cx="3.525" cy="3.525" rx="3.525" ry="3.525" transform="translate(23.752 39.799)"/><ellipse class="g" cx="3.525" cy="3.525" rx="3.525" ry="3.525" transform="translate(27.225 19.899)"/><ellipse class="g" cx="3.525" cy="3.525" rx="3.525" ry="3.525" transform="translate(30.698)"/><ellipse class="g" cx="3.525" cy="3.525" rx="3.525" ry="3.525" transform="translate(40.449 60.084)"/><ellipse class="g" cx="3.525" cy="3.525" rx="3.525" ry="3.525" transform="translate(43.99 39.799)"/><ellipse class="g" cx="3.525" cy="3.525" rx="3.525" ry="3.525" transform="translate(47.463 19.899)"/><ellipse class="g" cx="3.525" cy="3.525" rx="3.525" ry="3.525" transform="translate(50.936)"/><ellipse class="g" cx="3.525" cy="3.525" rx="3.525" ry="3.525" transform="translate(60.658 60.084)"/><ellipse class="g" cx="3.525" cy="3.525" rx="3.525" ry="3.525" transform="translate(64.199 39.799)"/><ellipse class="g" cx="3.525" cy="3.525" rx="3.525" ry="3.525" transform="translate(67.672 19.899)"/><ellipse class="g" cx="3.525" cy="3.525" rx="3.525" ry="3.525" transform="translate(71.145)"/><ellipse class="g" cx="3.525" cy="3.525" rx="3.525" ry="3.525" transform="translate(80.868 60.105)"/><ellipse class="g" cx="3.525" cy="3.525" rx="3.525" ry="3.525" transform="translate(84.408 39.819)"/><ellipse class="g" cx="3.525" cy="3.525" rx="3.525" ry="3.525" transform="translate(87.881 19.92)"/><ellipse class="g" cx="3.525" cy="3.525" rx="3.525" ry="3.525" transform="translate(91.354 0.021)"/><ellipse class="g" cx="3.525" cy="3.525" rx="3.525" ry="3.525" transform="translate(101.08 60.084)"/><ellipse class="g" cx="3.525" cy="3.525" rx="3.525" ry="3.525" transform="translate(104.62 39.799)"/><ellipse class="g" cx="3.525" cy="3.525" rx="3.525" ry="3.525" transform="translate(108.093 19.899)"/><ellipse class="g" cx="3.525" cy="3.525" rx="3.525" ry="3.525" transform="translate(111.566)"/><ellipse class="g" cx="3.525" cy="3.525" rx="3.525" ry="3.525" transform="translate(121.275 60.084)"/><ellipse class="g" cx="3.525" cy="3.525" rx="3.525" ry="3.525" transform="translate(124.816 39.799)"/><ellipse class="g" cx="3.525" cy="3.525" rx="3.525" ry="3.525" transform="translate(128.289 19.899)"/><ellipse class="g" cx="3.525" cy="3.525" rx="3.525" ry="3.525" transform="translate(131.762)"/><ellipse class="g" cx="3.525" cy="3.525" rx="3.525" ry="3.525" transform="translate(141.488 60.084)"/><ellipse class="g" cx="3.525" cy="3.525" rx="3.525" ry="3.525" transform="translate(145.028 39.799)"/><ellipse class="g" cx="3.525" cy="3.525" rx="3.525" ry="3.525" transform="translate(148.501 19.899)"/><ellipse class="g" cx="3.525" cy="3.525" rx="3.525" ry="3.525" transform="translate(151.974)"/></g><path class="d" d="M165.393,150.279l-8.863,24.35,25.519-4.5Z" transform="translate(0 0)"/><path class="h" d="M500,515.96c4.913,0,4.908,10.083,9.821,10.085s4.919-10.077,9.832-10.075,4.908,10.083,9.822,10.085,4.92-10.077,9.835-10.075,4.908,10.083,9.822,10.085,4.92-10.077,9.834-10.075,4.908,10.083,9.821,10.085S573.709,516,578.622,516s4.909,10.083,9.823,10.085,4.922-10.077,9.838-10.075,4.909,10.083,9.824,10.085,4.923-10.077,9.841-10.075,4.912,10.083,9.83,10.085" transform="translate(0 0)"/><rect class="i" width="18.583" height="18.583" transform="translate(1035.365 541.793) rotate(9.379)"/><g transform="translate(1079.829 466.013)"><path class="j" d="M1193.835,618a38,38,0,0,1,75.959,0" transform="translate(-1079.829 -466.013)"/><path class="j" d="M1205.246,618a26.6,26.6,0,0,1,53.141,0" transform="translate(-1079.829 -466.013)"/><path class="j" d="M1182.438,618a49.391,49.391,0,0,1,98.752,0" transform="translate(-1079.829 -466.013)"/><path class="j" d="M1171.038,618a60.783,60.783,0,1,1,121.566,0" transform="translate(-1079.829 -466.013)"/><path class="j" d="M1159.637,618a72.185,72.185,0,1,1,144.371,0" transform="translate(-1079.829 -466.013)"/><path class="j" d="M1148.23,618a83.585,83.585,0,1,1,167.171,0" transform="translate(-1079.829 -466.013)"/><path class="j" d="M1136.841,618a94.98,94.98,0,1,1,189.96,0" transform="translate(-1079.829 -466.013)"/><path class="j" d="M1125.433,618a106.381,106.381,0,1,1,212.762,0" transform="translate(-1079.829 -466.013)"/><path class="j" d="M1114.033,618a117.781,117.781,0,1,1,235.562,0" transform="translate(-1079.829 -466.013)"/><path class="j" d="M1102.632,617.995a129.181,129.181,0,1,1,258.363,0" transform="translate(-1079.829 -466.013)"/><path class="j" d="M1091.232,617.992a140.579,140.579,0,1,1,281.159,0" transform="translate(-1079.829 -466.013)"/><path class="j" d="M1079.829,618a151.984,151.984,0,1,1,303.969,0" transform="translate(-1079.829 -466.013)"/></g><ellipse class="k" cx="9.413" cy="9.413" rx="9.413" ry="9.413" transform="translate(254.447 368.565)"/><rect class="l" width="15.07" height="15.068" transform="translate(289.245 405.989) rotate(-45)"/><path class="f" d="M996.486,184.475l-7.277,5.467V164.6l16.475,19.815Z" transform="translate(0 0)"/><rect class="f" width="8.237" height="8.237" transform="translate(1001.565 192.304)"/></g></g><text class="m" transform="translate(717 381)"><tspan x="-475.997" y="0">THE PIXEL PROJECT</tspan></text></g></svg>