<svg xmlns="http://www.w3.org/2000/svg" viewBox="0 0 1047.588 517.48"><defs><style>.a,.d{fill:none;stroke-miterlimit:10;stroke-dasharray:5.722 2.861;}.a,.d,.e{stroke:#ff6166;}.a{stroke-width:3.883px;}.b,.c{fill:#241f20;}.b{font-size:29px;}.b,.c,.f,.i,.p{font-family:Helvetica;}.c{font-size:28px;}.d{stroke-width:3.807px;}.e{fill:#fff;stroke-width:4.029px;}.f,.i{fill:#3880f4;}.f{font-size:23px;}.g{letter-spacing:0.004em;}.h{letter-spacing:-0.004em;}.i{font-size:24px;}.j{letter-spacing:-0.025em;}.k{letter-spacing:-0.007em;}.l{letter-spacing:-0.033em;}.m{letter-spacing:0.006em;}.n{letter-spacing:-0.026em;}.o{letter-spacing:-0.01em;}.p{font-size:18px;}.q{letter-spacing:-0.006em;}.r{letter-spacing:0.011em;}</style></defs><g transform="translate(523.794 258.74)"><g transform="translate(-523.794 -258.74)"><line class="a" x2="803.463" y2="2.242" transform="translate(84.381 227.972)"/><text class="b" transform="translate(22.375 22)"><tspan x="0" y="0">WEEK 1</tspan></text><text class="c" transform="translate(185.352 454.315)"><tspan x="0" y="0">WEEK 2</tspan></text><text class="c" transform="translate(378.965 23.002)"><tspan x="0" y="0">WEEK 3</tspan></text><text class="c" transform="translate(543.406 454.315)"><tspan x="0" y="0">WEEK 4</tspan></text><text class="b" transform="translate(735.209 22)"><tspan x="0" y="0">WEEK 5</tspan></text><text class="b" transform="translate(896.478 453.316)"><tspan x="0" y="0">WEEK 6</tspan></text><line class="d" y2="103.582" transform="translate(84.384 124.341)"/><path class="e" d="M.55.55l20.134-.4-.4,20.134-20.134.4Z" transform="translate(84.385 114.2) rotate(45)"/><line class="d" y1="103.582" transform="translate(181.037 230.305)"/><path class="e" d="M0,0,20.134.4l.4,20.134L.4,20.134Z" transform="translate(166.521 329.296) rotate(-45)"/><line class="d" y2="103.582" transform="translate(370.632 126.799)"/><path class="e" d="M.55.55l20.134-.4-.4,20.134-20.134.4Z" transform="translate(370.633 116.655) rotate(45)"/><line class="d" y1="103.582" transform="translate(535.203 230.305)"/><path class="e" d="M0,0,20.134.4l.4,20.134L.4,20.134Z" transform="translate(520.686 329.297) rotate(-45)"/><line class="d" y1="103.582" transform="translate(887.845 230.165)"/><path class="e" d="M0,0,20.134.4l.4,20.134L.4,20.134Z" transform="translate(873.328 329.154) rotate(-45)"/><line class="d" y2="103.582" transform="translate(724.525 126.799)"/><path class="e" d="M.55.55l20.134-.4-.4,20.134-20.134.4Z" transform="translate(724.529 116.655) rotate(45)"/><text class="f" transform="translate(0 86.274)"><tspan x="0" y="0">O</tspan><tspan class="g" y="0">r</tspan><tspan y="0">ie</tspan><tspan class="h" y="0">n</tspan><tspan y="0">t</tspan><tspan class="h" y="0">a</tspan><tspan y="0">tion*</tspan></text><text class="i" transform="translate(160.845 377.648)"><tspan class="j" x="0" y="0">P</tspan><tspan y="0">eer </tspan><tspan class="k" y="0">E</tspan><tspan class="h" y="0">v</tspan><tspan y="0">alu</tspan><tspan class="h" y="0">a</tspan><tspan y="0">tion I</tspan></text><text class="i" transform="translate(353.44 86.287)"><tspan class="l" x="0" y="0">W</tspan><tspan y="0">o</tspan><tspan class="g" y="0">r</tspan><tspan y="0">k </tspan><tspan class="m" y="0">S</tspan><tspan y="0">essions I*</tspan></text><text class="i" transform="translate(516.018 377.648)"><tspan class="j" x="0" y="0">P</tspan><tspan y="0">eer </tspan><tspan class="k" y="0">E</tspan><tspan class="h" y="0">v</tspan><tspan y="0">alu</tspan><tspan class="h" y="0">a</tspan><tspan y="0">tion II</tspan></text><text class="i" transform="translate(707.305 86.488)"><tspan class="l" x="0" y="0">W</tspan><tspan y="0">o</tspan><tspan class="g" y="0">r</tspan><tspan y="0">k </tspan><tspan class="m" y="0">S</tspan><tspan y="0">essions II*</tspan></text><text class="i" transform="translate(869.588 377.127)"><tspan class="n" x="0" y="0">F</tspan><tspan y="0">inal Sh</tspan><tspan class="k" y="0">o</tspan><tspan class="o" y="0">w</tspan><tspan y="0">case*</tspan></text><text class="p" transform="translate(0 513.48)"><tspan x="0" y="0">*</tspan><tspan class="m" y="0">M</tspan><tspan y="0">e</tspan><tspan class="h" y="0">n</tspan><tspan class="q" y="0">t</tspan><tspan y="0">or </tspan><tspan class="h" y="0">a</tspan><tspan y="0">t</tspan><tspan class="q" y="0">t</tspan><tspan y="0">endan</tspan><tspan class="q" y="0">c</tspan><tspan y="0">e </tspan><tspan class="o" y="0">r</tspan><tspan y="0">equi</tspan><tspan class="o" y="0">r</tspan><tspan y="0">ed (all e</tspan><tspan class="o" y="0">v</tspan><tspan y="0">e</tspan><tspan class="h" y="0">n</tspan><tspan y="0">ts a</tspan><tspan class="o" y="0">r</tspan><tspan y="0">e a</tspan><tspan class="r" y="0">f</tspan><tspan class="q" y="0">t</tspan><tspan y="0">er </tspan><tspan class="o" y="0">w</tspan><tspan y="0">o</tspan><tspan class="g" y="0">r</tspan><tspan y="0">k hours).</tspan></text></g></g></svg>